{"title":"Dick Dale (The King of Surf Guitar) - Unknown Territory","uid":5061400,"size":368113441,"categoryP":"audio","categoryS":"flac","magnet":"?xt=urn:btih:830d7eef2fdba1555f4e0ec853415da59af95109&amp;dn=Dick+Dale+%28The+King+of+Surf+Guitar%29+-+Unknown+Territory&amp;tr=udp%3A%2F%2Ftracker.openbittorrent.com%3A80&amp;tr=udp%3A%2F%2Fopen.demonii.com%3A1337&amp;tr=udp%3A%2F%2Ftracker.coppersurfer.tk%3A6969&amp;tr=udp%3A%2F%2Fexodus.desync.com%3A6969","seeders":1,"leechers":0,"uploader":"sowingmyseed","files":15,"time":1250719386,"description":"Exact Audio Copy V0.99 prebeta 4 from 23. January 2008\n\nEAC extraction logfile from 19. August 2009, 12:52\n\nDick Dale / Unknown Territory\n\nUsed drive  : ATAPI   DVD D  DH16D3P   Adapter: 0  ID: 1\n\nRead mode               : Secure\nUtilize accurate stream : Yes\nDefeat audio cache      : No\nMake use of C2 pointers : No\n\nRead offset correction                      : 6\nOverread into Lead-In and Lead-Out          : No\nFill up missing offset samples with silence : Yes\nDelete leading and trailing silent blocks   : No\nNull samples used in CRC calculations       : No\nUsed interface                              : Installed external ASPI interface\nGap handling                                : Not detected, thus appended to previous track\n\nUsed output format              : User Defined Encoder\nSelected bitrate                : 768 kBit/s\nQuality                         : High\nAdd ID3 tag                     : No\nCommand line compressor         : C:Program FilesExact Audio CopyFLACFLAC.EXE\nAdditional command line options : -6 -V -T &quot;ARTIST=%a&quot; -T &quot;TITLE=%t&quot; -T &quot;ALBUM=%g&quot; -T &quot;DATE=%y&quot; -T &quot;TRACKNUMBER=%n&quot; -T &quot;GENRE=%m&quot; -T &quot;COMMENT=%e&quot; %s -o %d\n\n\nTOC of the extracted CD\n\n     Track |   Start  |  Length  | Start sector | End sector \n    ---------------------------------------------------------\n        1  |  0:00.00 |  4:06.07 |         0    |    18456   \n        2  |  4:06.07 |  3:08.18 |     18457    |    32574   \n        3  |  7:14.25 |  4:27.60 |     32575    |    52659   \n        4  | 11:42.10 |  3:12.05 |     52660    |    67064   \n        5  | 14:54.15 |  4:30.10 |     67065    |    87324   \n        6  | 19:24.25 |  3:16.12 |     87325    |   102036   \n        7  | 22:40.37 |  2:39.40 |    102037    |   114001   \n        8  | 25:20.02 |  3:19.08 |    114002    |   128934   \n        9  | 28:39.10 |  4:21.72 |    128935    |   148581   \n       10  | 33:01.07 |  4:03.70 |    148582    |   166876   \n       11  | 37:05.02 |  3:11.63 |    166877    |   181264   \n       12  | 40:16.65 |  7:59.07 |    181265    |   217196   \n       13  | 48:15.72 |  3:32.00 |    217197    |   233096   \n\n\nTrack  1\n\n     Filename E:MusicDick DaleUnknown TerritoryDick Dale - Unknown Territory - 01. Scalped.wav\n\n     Peak level 98.8 %\n     Track quality 100.0 %\n     Test CRC 4CF5FDA8\n     Copy CRC 4CF5FDA8\n     Track not present in AccurateRip database\n     Copy OK\n\nTrack  2\n\n     Filename E:MusicDick DaleUnknown TerritoryDick Dale - Unknown Territory - 02. Mexico.wav\n\n     Peak level 98.8 %\n     Track quality 100.0 %\n     Test CRC A407E668\n     Copy CRC A407E668\n     Track not present in AccurateRip database\n     Copy OK\n\nTrack  3\n\n     Filename E:MusicDick DaleUnknown TerritoryDick Dale - Unknown Territory - 03. F Groove.wav\n\n     Peak level 98.8 %\n     Track quality 99.9 %\n     Test CRC 67CC87AD\n     Copy CRC 67CC87AD\n     Track not present in AccurateRip database\n     Copy OK\n\nTrack  4\n\n     Filename E:MusicDick DaleUnknown TerritoryDick Dale - Unknown Territory - 04. Terra Dicktyl.wav\n\n     Peak level 98.8 %\n     Track quality 100.0 %\n     Test CRC 684AFA5B\n     Copy CRC 684AFA5B\n     Track not present in AccurateRip database\n     Copy OK\n\nTrack  5\n\n     Filename E:MusicDick DaleUnknown TerritoryDick Dale - Unknown Territory - 05. Take It Or Leave It.wav\n\n     Peak level 98.8 %\n     Track quality 100.0 %\n     Test CRC B916FE3C\n     Copy CRC B916FE3C\n     Track not present in AccurateRip database\n     Copy OK\n\nTrack  6\n\n     Filename E:MusicDick DaleUnknown TerritoryDick Dale - Unknown Territory - 06. Ghostriders In The Sky.wav\n\n     Peak level 98.8 %\n     Track quality 100.0 %\n     Test CRC A789ABB5\n     Copy CRC A789ABB5\n     Track not present in AccurateRip database\n     Copy OK\n\nTrack  7\n\n     Filename E:MusicDick DaleUnknown TerritoryDick Dale - Unknown Territory - 07. Fish Taco.wav\n\n     Peak level 100.0 %\n     Track quality 100.0 %\n     Test CRC 71146BF7\n     Copy CRC 71146BF7\n     Track not present in AccurateRip database\n     Copy OK\n\nTrack  8\n\n     Filename E:MusicDick DaleUnknown TerritoryDick Dale - Unknown Territory - 08. California Sun.wav\n\n     Peak level 98.8 %\n     Track quality 100.0 %\n     Test CRC 92ACF3DC\n     Copy CRC 92ACF3DC\n     Track not present in AccurateRip database\n     Copy OK\n\nTrack  9\n\n     Filename E:MusicDick DaleUnknown TerritoryDick Dale - Unknown Territory - 09. Maria Elena.wav\n\n     Peak level 98.8 %\n     Track quality 100.0 %\n     Test CRC F4539E3E\n     Copy CRC F4539E3E\n     Track not present in AccurateRip database\n     Copy OK\n\nTrack 10\n\n     Filename E:MusicDick DaleUnknown TerritoryDick Dale - Unknown Territory - 10. Hava Negila.wav\n\n     Peak level 98.8 %\n     Track quality 100.0 %\n     Test CRC 521253E9\n     Copy CRC 521253E9\n     Track not present in AccurateRip database\n     Copy OK\n\nTrack 11\n\n     Filename E:MusicDick DaleUnknown TerritoryDick Dale - Unknown Territory - 11. The Beast.wav\n\n     Peak level 98.8 %\n     Track quality 100.0 %\n     Test CRC 5F9BF9CF\n     Copy CRC 5F9BF9CF\n     Track not present in AccurateRip database\n     Copy OK\n\nTrack 12\n\n     Filename E:MusicDick DaleUnknown TerritoryDick Dale - Unknown Territory - 12. Unknown Territory.wav\n\n     Peak level 98.8 %\n     Track quality 100.0 %\n     Test CRC BD31BEAA\n     Copy CRC BD31BEAA\n     Track not present in AccurateRip database\n     Copy OK\n\nTrack 13\n\n     Filename E:MusicDick DaleUnknown TerritoryDick Dale - Unknown Territory - 13. Ring Of Fire.wav\n\n     Peak level 98.8 %\n     Track quality 100.0 %\n     Test CRC DA0B20F2\n     Copy CRC DA0B20F2\n     Track not present in AccurateRip database\n     Copy OK\n\n\nNone of the tracks are present in the AccurateRip database\n\nNo errors occurred\n\nEnd of status report\n","torrent":{"xt":"urn:btih:830d7eef2fdba1555f4e0ec853415da59af95109","amp;dn":"Dick+Dale+%28The+King+of+Surf+Guitar%29+-+Unknown+Territory","amp;tr":["udp%3A%2F%2Ftracker.openbittorrent.com%3A80","udp%3A%2F%2Fopen.demonii.com%3A1337","udp%3A%2F%2Ftracker.coppersurfer.tk%3A6969","udp%3A%2F%2Fexodus.desync.com%3A6969"],"infoHash":"830d7eef2fdba1555f4e0ec853415da59af95109","infoHashBuffer":{"type":"Buffer","data":[131,13,126,239,47,219,161,85,95,78,14,200,83,65,93,165,154,249,81,9]},"announce":[],"urlList":[]}}